<svg width="37" height="31" viewBox="0 0 37 31" fill="none" xmlns="http://www.w3.org/2000/svg">
<path d="M30.7295 9.61167H30.58C30.1294 9.62753 29.6815 9.68708 29.2433 9.78941H29.1378C27.6969 10.1646 26.4467 11.0309 25.62 12.227C25.9239 11.4108 26.4085 10.6679 27.0401 10.0497C27.6718 9.43152 28.4356 8.95283 29.2785 8.64678C29.2223 6.64743 28.4669 4.72478 27.1347 3.18977C25.8024 1.65476 23.9711 0.597149 21.9368 0.187974C19.9026 -0.221202 17.7845 0.0419862 15.9249 0.934973C14.0654 1.82796 12.5732 3.29853 11.6897 5.10886C12.8298 5.79067 13.771 6.74033 14.4249 7.86856C15.0787 8.99679 15.4237 10.2665 15.4273 11.5584C15.4273 11.6261 15.4273 11.6853 15.4273 11.7446C15.1272 10.6485 14.5768 9.6306 13.8161 8.76523C13.0554 7.89986 12.1036 7.20878 11.0301 6.7424C10.7869 6.63268 10.5373 6.5366 10.2826 6.45463H10.2298C10.0107 6.38089 9.7876 6.31873 9.56145 6.26842H9.36798C9.1745 6.2261 8.98982 6.20071 8.79634 6.17532H8.55889C8.31952 6.14832 8.07877 6.13419 7.83776 6.133H7.77619C7.58271 6.133 7.39803 6.133 7.21335 6.133H6.9847L6.6681 6.18378C6.51148 6.19744 6.35583 6.22005 6.202 6.25149L5.92058 6.3192C5.76025 6.35074 5.60174 6.39029 5.44568 6.4377L5.17305 6.5308L4.72454 6.69162L4.43433 6.81857L4.03857 7.00478C3.93304 7.05556 3.82751 7.12327 3.72198 7.18252L3.39659 7.37719L3.07999 7.64804C2.99205 7.71575 2.89531 7.775 2.81616 7.84271C2.73701 7.91042 2.57871 8.03738 2.46438 8.13894L2.25332 8.31669L1.91033 8.68064L1.75204 8.84991C1.63771 8.97687 1.52338 9.12076 1.41785 9.26465L1.30352 9.417C1.1892 9.56935 1.09246 9.73016 0.986924 9.89098L0.907775 10.0264C0.804686 10.1952 0.713604 10.3705 0.635151 10.5512L0.564794 10.6781C0.485645 10.8643 0.415289 11.0505 0.344934 11.2367C0.34118 11.279 0.34118 11.3215 0.344934 11.3637C0.274579 11.5499 0.221812 11.753 0.169046 11.9477C0.169046 11.99 0.169046 12.0323 0.169046 12.0747C0.169046 12.2778 0.0898975 12.4725 0.0635143 12.6756V12.8195C0.0635143 13.0226 0.063515 13.2173 0.0195431 13.4204C-0.0244289 13.6236 0.0195431 13.632 0.0195431 13.7336C0.0195431 15.7539 0.853438 17.6914 2.33778 19.12C3.82212 20.5486 5.83531 21.3511 7.93449 21.3511C8.31425 21.3489 8.69337 21.3206 9.06896 21.2665V29.485C9.06896 30.3313 13.5541 31 19.0858 31C24.6174 31 29.0498 30.3144 29.0498 29.485V21.1903C29.6398 21.3638 30.2533 21.4523 30.8702 21.4527C32.1458 21.4513 33.3894 21.0686 34.4292 20.3575C35.469 19.6464 36.2536 18.642 36.6745 17.4831C36.7273 17.3477 36.7713 17.2123 36.8153 17.0684C36.8122 17.0459 36.8122 17.0231 36.8153 17.0007C36.8153 16.8568 36.8856 16.7129 36.912 16.569C36.9163 16.5438 36.9163 16.5181 36.912 16.4928C36.9722 16.1774 37.0016 15.8572 36.9999 15.5364C37.0001 14.749 36.8371 13.9695 36.5206 13.2434C36.2041 12.5173 35.7404 11.8592 35.1566 11.3076C34.5728 10.756 33.8806 10.3219 33.1205 10.0307C32.3604 9.73949 31.5475 9.59704 30.7295 9.61167ZM20.0619 0.927684C22.0365 0.927549 23.9488 1.59283 25.4669 2.80805C26.985 4.02328 28.0131 5.71172 28.3726 7.58033C27.6577 5.7208 26.3669 4.11732 24.6746 2.9866C22.9822 1.85587 20.97 1.25242 18.9099 1.25778C18.3197 1.2592 17.7309 1.31304 17.151 1.41859C18.0836 1.091 19.0691 0.924798 20.0619 0.927684ZM18.9626 19.3367C23.7116 19.3367 27.6075 20.0985 28.0209 20.9364C26.6226 20.4201 23.1048 20.09 18.9626 20.09C14.8205 20.09 11.3027 20.454 9.90443 20.9364C10.3266 20.0985 14.2137 19.3367 18.9626 19.3367ZM18.9626 26.5226C23.7116 26.5226 27.6251 27.1151 28.0209 27.8006C26.6226 27.2843 23.1048 26.9542 18.9626 26.9542C14.8205 26.9542 11.3027 27.3182 9.90443 27.8006C10.2914 27.1151 14.2137 26.5226 18.9626 26.5226ZM18.9626 30.179C13.9411 30.179 9.86046 29.6035 9.86046 28.884C9.86046 28.1646 13.9411 27.5975 18.9626 27.5975C23.9842 27.5975 28.0648 28.173 28.0648 28.884C28.0648 29.595 23.993 30.179 18.9626 30.179ZM30.0875 10.6273C29.7159 10.631 29.3452 10.6649 28.9795 10.7289C29.5604 10.5258 30.1731 10.4199 30.7911 10.4157C32.0341 10.4089 33.2396 10.8246 34.1953 11.5895C35.151 12.3544 35.7954 13.4195 36.015 14.5969C35.564 13.4334 34.7549 12.43 33.6958 11.7207C32.6366 11.0114 31.3779 10.63 30.0875 10.6273Z" fill="white"/>
</svg>
